# xmcd
# Copyright (C) 1995-1998 Ti Kan
#
# Track frame offsets:
#       150
#       16771
#       35250
#       62310
#       80160
#       101370
#       120385
#       136118
#       151686
#       164503
#       186930
#
# Disc length: 2743 seconds
#
# Revision: 0
# Processed by: cddbd v1.5.2PL0 Copyright (c) Steve Scherf et al.
# Submitted via: CD-Import v1.0
#
DISCID=780ab50b
DTITLE=Moke - Shorland
DYEAR=2009
DGENRE=
TTITLE0=This Plan
TTITLE1=Last Chance
TTITLE2=Emigration Song
TTITLE3=Here Comes The Summer
TTITLE4=Rule The World
TTITLE5=The Long Way
TTITLE6=We'll Dance
TTITLE7=Only One I Had
TTITLE8=The Song That You Sing
TTITLE9=Bygone
TTITLE10=Heart Without A Home
EXTD=
EXTT0=
EXTT1=
EXTT2=
EXTT3=
EXTT4=
EXTT5=
EXTT6=
EXTT7=
EXTT8=
EXTT9=
EXTT10=
PLAYORDER=
